# xmcd CD database file
# Copyright (C) 1996 Ti Kan
#
# Track frame offsets:
#  182
#  14690
#  29722
#  44000
#  57037
#  71380
#  85025
#  98472
#  112292
#  125335
#  140320
#  154610
#  168465
#  182887
#
# Disc length: 2638 seconds
#
# Revision: 1
# Processed by: cddbd v1.4b41PL1 Copyright (c) Steve Scherf et al.
# Submitted via: CDWizzard Release:4.12
#
DISCID=bd0a4c0e
DTITLE=Johnson, Blind Willie - Praise God I'm Satisfied
DYEAR=1900
DGENRE=
TTITLE0=Jesus Make Up My Dying Bed
TTITLE1=Dark Was The Night - Cold Was The Ground
TTITLE2=Praise God I'm Satisfied
TTITLE3=Bye And Bye I'm Goin' To See The King
TTITLE4=You're Gonna Need Somebody On Your Bond
TTITLE5=When The War Was On
TTITLE6=God Moves On The Water
TTITLE7=I Know His Blood Can Make Me Whole
TTITLE8=God Don't Never Change
TTITLE9=The Rain Don't Fall On Me
TTITLE10=Nobody's Fault But Mine
TTITLE11=Keep Your Lamp Trimmed And Burning
TTITLE12=Jesus Is Coming Soon
TTITLE13=Mother's Children Have A Hard Time
EXTD=
EXTT0=
EXTT1=
EXTT2=
EXTT3=
EXTT4=
EXTT5=
EXTT6=
EXTT7=
EXTT8=
EXTT9=
EXTT10=
EXTT11=
EXTT12=
EXTT13=
PLAYORDER=
